<?xml version="1.0" standalone="no"?>
<!DOCTYPE svg PUBLIC "-//W3C//DTD SVG 20010904//EN"
 "http://www.w3.org/TR/2001/REC-SVG-20010904/DTD/svg10.dtd">
<svg version="1.0" xmlns="http://www.w3.org/2000/svg"
 width="96.000000pt" height="96.000000pt" viewBox="0 0 96.000000 96.000000"
 preserveAspectRatio="xMidYMid meet">
<metadata>
Created by potrace 1.11, written by Peter Selinger 2001-2013
</metadata>
<g transform="translate(0.000000,96.000000) scale(0.100000,-0.100000)"
fill="#000000" stroke="none">
<path d="M467 943 c-2 -4 -8 -23 -12 -40 -5 -27 -10 -31 -23 -24 -24 12 -93 4
-110 -13 -12 -11 -11 -19 7 -54 16 -31 19 -51 14 -91 -5 -43 -2 -57 14 -80 33
-44 51 -201 30 -250 -15 -33 -26 -42 -113 -87 -55 -28 -75 -45 -88 -72 -22
-46 -28 -129 -11 -168 16 -38 56 -48 193 -46 109 1 159 14 189 50 l22 26 21
-27 c12 -15 26 -24 32 -21 5 3 34 6 63 5 73 0 86 14 85 93 -1 33 2 84 5 111 4
30 1 76 -8 117 -19 88 -15 264 8 307 17 34 15 103 -4 109 -6 2 -11 13 -11 25
0 35 -28 102 -41 99 -6 -2 -19 -12 -29 -24 -17 -21 -17 -21 -39 15 -32 53 -81
62 -81 16 l0 -20 -28 20 c-33 23 -78 36 -85 24z"/>
</g>
</svg>
