<?xml version="1.0" encoding="utf-8"?>
<!-- Generator: Adobe Illustrator 16.0.0, SVG Export Plug-In . SVG Version: 6.00 Build 0)  -->
<!DOCTYPE svg PUBLIC "-//W3C//DTD SVG 1.1//EN" "http://www.w3.org/Graphics/SVG/1.1/DTD/svg11.dtd">
<svg version="1.1" xmlns="http://www.w3.org/2000/svg" xmlns:xlink="http://www.w3.org/1999/xlink" x="0px" y="0px" width="800px"
	 height="800px" viewBox="0 0 800 800" enable-background="new 0 0 800 800" xml:space="preserve">
<g id="Layer_1">
</g>
<g id="Layer_2">
	<g>
		<g>
			<path fill="#FFFFFF" d="M69.067,208.753C48.597,196.923,399.999-6.154,399.999,17.505c0-23.659,351.404,179.418,330.934,191.248
				c20.471-11.83,20.471,394.324,0,382.494c20.471,11.83-330.934,214.907-330.934,191.247c0,23.66-351.402-179.417-330.932-191.247
				C48.597,603.077,48.597,196.923,69.067,208.753z"/>
		</g>
		
			<rect x="188.273" y="325.443" transform="matrix(0.7071 0.7071 -0.7071 0.7071 400.2693 -166.3378)" fill="#03A9F4" width="425.3" height="149.114"/>
		
			<rect x="188.272" y="325.444" transform="matrix(-0.7071 0.7071 -0.7071 -0.7071 967.2591 399.3505)" fill="#03A9F4" width="425.3" height="149.113"/>
	</g>
</g>
</svg>
